<svg width="40" height="39" viewBox="0 0 40 39" fill="none" xmlns="http://www.w3.org/2000/svg">
<g clip-path="url(#clip0_11_77)">
<path d="M39.0643 10.3762C39.0643 9.20504 38.9655 8.03865 38.6858 6.89845C38.1836 4.82157 36.9993 3.23505 35.2271 2.06986C34.3154 1.47476 33.3121 1.10938 32.2457 0.916566C31.4269 0.767792 30.5973 0.699951 29.7665 0.680908C29.7047 0.674957 29.6368 0.661865 29.5678 0.655914H10.4879C10.2463 0.674957 10.0047 0.686859 9.76305 0.698761C8.57881 0.766602 7.40172 0.890381 6.28532 1.3367C4.1656 2.1734 2.63382 3.63615 1.74118 5.74397C1.43173 6.45689 1.27582 7.21266 1.16513 7.98152C1.0723 8.60161 1.02231 9.22765 1.00446 9.85369C1.00446 9.90368 0.992554 9.95247 0.992554 10.0025V29.399C1.00446 29.6227 1.01755 29.8453 1.02945 30.069C1.11038 31.3651 1.27701 32.6482 1.82331 33.8384C2.85282 36.089 4.58216 37.5696 6.95659 38.2825C7.61952 38.4872 8.31459 38.5801 9.00847 38.642C9.88921 38.7288 10.7688 38.7407 11.6495 38.7407H29.1548C29.9855 38.7407 30.8163 38.6848 31.647 38.5801C32.9551 38.4123 34.1821 38.0278 35.2926 37.297C36.6256 36.4163 37.6301 35.2511 38.274 33.7943C38.5716 33.1242 38.7394 32.4125 38.8632 31.6925C39.0429 30.6201 39.0798 29.5346 39.0798 28.4504C39.0738 22.4245 39.0798 16.3997 39.0738 10.3738L39.0643 10.3762ZM28.8727 16.7044V25.7677C28.8727 26.4306 28.7799 27.0817 28.4823 27.6827C28.0241 28.6182 27.2802 29.2073 26.2817 29.493C25.7294 29.6537 25.1593 29.7405 24.5833 29.7655C23.0765 29.8405 21.7685 28.817 21.5019 27.3292C21.2722 26.1021 21.8613 24.7501 23.1503 24.1181C23.6585 23.8705 24.2107 23.7218 24.7618 23.6099C25.3628 23.4802 25.9639 23.3623 26.559 23.2255C26.9994 23.1267 27.2838 22.8601 27.3707 22.4066C27.3957 22.3078 27.4016 22.2019 27.4016 22.1031C27.4016 19.2205 27.4016 16.3378 27.4016 13.4623C27.4016 13.3636 27.3826 13.2636 27.3588 13.1707C27.2969 12.9291 27.1231 12.7863 26.8756 12.7982C26.6209 12.8101 26.3733 12.8542 26.1258 12.9041C24.9165 13.1398 23.7085 13.3814 22.5052 13.629L16.6352 14.8132C16.6102 14.8192 16.5793 14.8322 16.5543 14.8322C16.1139 14.956 15.9592 15.1548 15.9401 15.613C15.9342 15.6809 15.9401 15.7499 15.9401 15.8177C15.9342 19.9465 15.9401 24.0752 15.9342 28.2028C15.9342 28.8729 15.8592 29.5299 15.5938 30.1488C15.1534 31.1652 14.3726 31.8043 13.3193 32.1078C12.7611 32.2685 12.191 32.3625 11.6078 32.3804C10.0892 32.4363 8.82399 31.4258 8.56453 29.9322C8.34078 28.6432 8.92992 27.2542 10.3927 26.6342C10.9628 26.3985 11.5519 26.2688 12.1529 26.145C12.6052 26.0522 13.0646 25.9593 13.5169 25.8665C14.1239 25.7367 14.4405 25.3523 14.4714 24.7322V24.4966C14.4714 19.7977 14.4714 15.0988 14.4714 10.4C14.4714 10.2012 14.4964 10.0037 14.5393 9.81084C14.6512 9.35857 14.9737 9.09792 15.4069 8.99199C15.8104 8.88607 16.2258 8.81227 16.634 8.72539C17.7992 8.48973 18.9584 8.25408 20.1236 8.02437L23.7251 7.2924C24.7916 7.08174 25.8508 6.86513 26.9172 6.65446C27.2648 6.58662 27.6183 6.51164 27.9705 6.48665C28.4597 6.4438 28.8013 6.75325 28.8513 7.24956C28.8632 7.36739 28.8703 7.48521 28.8703 7.60304C28.8703 10.6345 28.8703 13.6659 28.8703 16.6973L28.8727 16.7044Z" fill="black"/>
</g>
<defs>
<clipPath id="clip0_11_77">
<rect width="38.086" height="38.086" fill="white" transform="translate(0.983856 0.655914)"/>
</clipPath>
</defs>
</svg>
