<svg width="38" height="30" viewBox="0 0 38 30" fill="none" xmlns="http://www.w3.org/2000/svg">
<path d="M24.6667 1.64893V28.3617M36 1.64893V28.3617M2 5.85825V24.1523C2 26.0713 2 27.0306 2.37562 27.4748C2.70155 27.8604 3.19047 28.065 3.69078 28.0251C4.26738 27.9793 4.93898 27.301 6.28219 25.9442L15.3374 16.797C15.9583 16.1698 16.2687 15.8563 16.385 15.4947C16.4872 15.1767 16.4872 14.834 16.385 14.5159C16.2687 14.1543 15.9583 13.8408 15.3374 13.2136L6.28219 4.06651C4.93898 2.70967 4.26738 2.03126 3.69078 1.98543C3.19047 1.94565 2.70155 2.15023 2.37562 2.53571C2 2.97997 2 3.93939 2 5.85825Z" stroke="black" stroke-width="2.5" stroke-linecap="round" stroke-linejoin="round"/>
</svg>
