<svg width="40" height="40" viewBox="0 0 40 40" fill="none" xmlns="http://www.w3.org/2000/svg">
<path d="M30.3278 18.1233C26.4253 16.1562 21.8217 15.0035 16.9491 15.0035C14.1763 15.0035 11.491 15.376 8.93972 16.0759L9.15152 16.026C9.00179 16.0747 8.82895 16.1027 8.65001 16.1027C7.72491 16.1027 6.97388 15.3528 6.97388 14.4265C6.97388 13.6804 7.46199 13.0486 8.13512 12.8307L8.14729 12.8271C14.6267 10.9099 25.3055 11.2751 32.0612 15.2932C32.5797 15.6072 32.9205 16.1684 32.9205 16.8087C32.9205 17.1239 32.8377 17.4197 32.6941 17.6753L32.699 17.6668C32.346 18.0868 31.8214 18.3521 31.2334 18.3521C30.9011 18.3521 30.5895 18.2669 30.3181 18.1184L30.3278 18.1233ZM30.1452 23.2345C29.9006 23.6386 29.4623 23.9039 28.9633 23.9039C28.6894 23.9039 28.435 23.8248 28.2208 23.6873L28.2269 23.6909C24.8928 21.7835 20.8979 20.66 16.6412 20.66C14.298 20.66 12.0352 21.0008 9.8989 21.635L10.0657 21.5924C9.94272 21.6314 9.80152 21.6545 9.65545 21.6545C8.88981 21.6545 8.26902 21.0337 8.26902 20.2681C8.26902 19.6485 8.67436 19.1251 9.23429 18.9461L9.24403 18.9437C11.4399 18.2925 13.9645 17.9176 16.5754 17.9176C21.431 17.9176 25.9847 19.2127 29.9079 21.478L29.7788 21.4098C30.1404 21.6423 30.3765 22.0428 30.3765 22.498C30.3765 22.7743 30.2901 23.03 30.1428 23.2393L30.1452 23.2345ZM27.9542 28.2544C27.7631 28.5854 27.4113 28.8045 27.0084 28.8045C26.782 28.8045 26.5714 28.7352 26.3973 28.6171L26.401 28.6195C23.4881 26.9811 20.0056 26.0159 16.2991 26.0159C14.1738 26.0159 12.1216 26.3335 10.1886 26.9227L10.3371 26.8837C10.2556 26.9044 10.1606 26.9178 10.0644 26.9178C9.44122 26.9178 8.93606 26.4127 8.93606 25.7894C8.93606 25.2636 9.29637 24.8217 9.78326 24.6964L9.79057 24.6951C11.715 24.123 13.9255 23.7944 16.2127 23.7944C20.3538 23.7944 24.2416 24.8729 27.6134 26.7645L27.4953 26.7036C27.8629 26.8862 28.1112 27.2586 28.1112 27.6883C28.1112 27.8977 28.0528 28.0937 27.9505 28.2592L27.9542 28.2544ZM19.5565 1.87802C9.4753 1.87802 1.30276 10.0506 1.30276 20.1317C1.30276 30.2129 9.4753 38.3854 19.5565 38.3854C29.6376 38.3854 37.8102 30.2129 37.8102 20.1317C37.7797 10.0627 29.6255 1.90845 19.5601 1.87802H19.5565Z" fill="black"/>
</svg>
