<svg width="39" height="40" viewBox="0 0 39 40" fill="none" xmlns="http://www.w3.org/2000/svg">
<g clip-path="url(#clip0_11_68)">
<path d="M19.4973 1.76411C9.27875 1.76411 0.9953 10.0698 0.9953 20.3152C1.96987 44.9229 37.0283 44.9159 37.9993 20.3148C37.9993 10.0698 29.7155 1.76411 19.4973 1.76411ZM19.4973 30.9385C13.6406 30.9385 8.87521 26.1735 8.87521 20.3164C9.16345 13.0472 14.5832 9.74725 19.4969 9.74725H19.4977C24.4118 9.74764 29.832 13.0476 30.1186 20.2926C30.1194 26.1739 25.3541 30.9385 19.4973 30.9385Z" fill="black"/>
<path d="M19.4981 10.9579C13.2869 10.9575 10.265 15.8214 10.0854 20.3405C10.0858 25.5063 14.3078 29.7283 19.4973 29.7283C24.6868 29.7283 28.9088 25.5063 28.9088 20.3168C28.7308 15.8221 25.7093 10.9586 19.4981 10.9579Z" fill="black"/>
<path d="M16.0131 21.2508C16.0127 22.2538 16.0135 24.3151 16.0131 25.3252L24.5053 20.099L16.0131 15.3084V21.2508Z" fill="#877DB1"/>
</g>
<defs>
<clipPath id="clip0_11_68">
<rect width="38.9516" height="38.9516" fill="white" transform="translate(0.0215149 0.790329)"/>
</clipPath>
</defs>
</svg>
